<svg width="349" height="227" viewBox="0 0 349 227" fill="none" xmlns="http://www.w3.org/2000/svg">
<g clip-path="url(#clip0_2_2)">
<path d="M336 0H13C5.8203 0 0 5.8203 0 13V214C0 221.18 5.8203 227 13 227H336C343.18 227 349 221.18 349 214V13C349 5.8203 343.18 0 336 0Z" fill="black"/>
<path d="M325 141H25C19.4772 141 15 145.477 15 151V206C15 211.523 19.4772 216 25 216H325C330.523 216 335 211.523 335 206V151C335 145.477 330.523 141 325 141Z" fill="#CDCDCD"/>
<path d="M48.792 94.72V128H20.4613V27.9893H31.7253C34.456 27.9893 38.5236 27.8756 43.928 27.648C49.3324 27.3636 53.7982 27.2213 57.3253 27.2213C69.6133 27.2213 78.7724 29.9236 84.8027 35.328C90.8898 40.7324 93.9333 49.0098 93.9333 60.16C93.9333 66.7591 92.4827 72.6187 89.5813 77.7387C86.7369 82.8587 82.9538 86.9262 78.232 89.9413C80.792 90.5671 82.9822 92.0178 84.8027 94.2933C86.68 96.5689 88.1307 99.2711 89.1547 102.4C90.1787 105.472 91.0604 108.601 91.8 111.787C92.5964 114.916 93.4782 118.016 94.4453 121.088C95.4693 124.16 96.5787 126.464 97.7733 128H66.2853C65.6596 127.204 65.176 124.985 64.8347 121.344C64.4933 117.646 64.0098 113.237 63.384 108.117C62.8151 102.94 61.9902 98.6169 60.9093 95.1467C60.7956 95.1467 60.6533 95.1467 60.4827 95.1467C59.4018 95.1467 58.2356 95.1467 56.984 95.1467C55.7893 95.0898 54.7369 95.0329 53.8267 94.976C52.9164 94.9191 51.9493 94.8622 50.9253 94.8053C49.9582 94.7484 49.2471 94.72 48.792 94.72ZM48.792 78.848H51.5227C52.9449 78.848 54.1396 78.7911 55.1067 78.6773C56.0738 78.5636 57.1262 78.3644 58.264 78.08C59.4587 77.7387 60.4258 77.2267 61.1653 76.544C61.9618 75.8613 62.7013 74.9796 63.384 73.8987C64.0667 72.8178 64.5787 71.424 64.92 69.7173C65.2613 68.0107 65.432 66.0196 65.432 63.744V57.0027C65.432 52.0533 64.1236 48.6116 61.5067 46.6773C58.9467 44.6862 55.2489 43.6907 50.4133 43.6907H48.792V78.848Z" fill="white"/>
<path d="M163.719 128H103.217V27.9893H162.439L160.732 48.128L131.463 47.2747V66.56H154.503V86.528L131.463 84.8213V107.52L163.719 106.667V128Z" fill="white"/>
<path d="M199.713 128H171.467V27.9893H182.731C185.746 27.9893 190.298 27.8756 196.385 27.648C202.472 27.3636 207.478 27.2213 211.403 27.2213C222.44 27.2213 230.802 30.1511 236.491 36.0107C242.18 41.8702 245.025 50.6596 245.025 62.3787C245.025 69.4329 244.086 75.8613 242.209 81.664C240.388 87.4098 237.914 92.1316 234.785 95.8293C231.656 99.5271 228.1 102.372 224.118 104.363C220.136 106.354 215.926 107.349 211.489 107.349C210.92 107.349 210.322 107.349 209.697 107.349C209.128 107.349 208.587 107.349 208.075 107.349C207.62 107.292 207.051 107.264 206.369 107.264C205.743 107.207 205.231 107.179 204.833 107.179C204.491 107.122 203.979 107.093 203.297 107.093C202.671 107.036 202.244 107.008 202.017 107.008C201.789 107.008 201.362 106.98 200.737 106.923C200.111 106.866 199.77 106.837 199.713 106.837V128ZM217.035 58.624C217.035 54.4142 215.898 51.0009 213.622 48.384C211.346 45.7671 208.075 44.4587 203.809 44.4587H199.713V88.832H202.87C207.364 88.832 210.834 87.3244 213.281 84.3093C215.784 81.2942 217.035 76.9422 217.035 71.2533V58.624Z" fill="white"/>
<path d="M280.395 89.344C280.395 98.7876 281.106 105.358 282.529 109.056C284.008 112.754 286.568 114.603 290.209 114.603C292.882 114.603 294.902 113.948 296.267 112.64C297.633 111.275 298.657 108.516 299.339 104.363C300.079 100.153 300.449 93.8667 300.449 85.504V64.9387C300.449 56.8036 299.652 50.7449 298.059 46.7627C296.466 42.7804 293.85 40.7893 290.209 40.7893C286.568 40.7893 284.008 42.752 282.529 46.6773C281.106 50.5458 280.395 57.6284 280.395 67.9253V89.344ZM288.417 129.792C283.695 129.792 279.428 129.365 275.617 128.512C271.862 127.659 268.619 126.464 265.889 124.928C263.158 123.392 260.769 121.429 258.721 119.04C256.73 116.651 255.108 114.091 253.857 111.36C252.662 108.629 251.695 105.444 250.955 101.803C250.216 98.1049 249.704 94.4356 249.419 90.7947C249.135 87.0969 248.993 82.944 248.993 78.336C248.993 71.5093 249.334 65.5644 250.017 60.5013C250.756 55.4382 252.093 50.688 254.027 46.2507C255.962 41.7564 258.522 38.1156 261.707 35.328C264.95 32.5404 269.103 30.3502 274.166 28.7573C279.286 27.1644 285.316 26.368 292.257 26.368C297.035 26.368 301.33 26.8231 305.142 27.7333C308.954 28.5867 312.225 29.7813 314.955 31.3173C317.686 32.8533 320.047 34.8444 322.038 37.2907C324.086 39.7369 325.707 42.3538 326.902 45.1413C328.154 47.872 329.149 51.0862 329.889 54.784C330.628 58.4818 331.14 62.1511 331.425 65.792C331.709 69.4329 331.851 73.5573 331.851 78.1653C331.851 84.992 331.482 90.9369 330.742 96C330.002 101.063 328.666 105.813 326.731 110.251C324.797 114.631 322.209 118.215 318.966 121.003C315.723 123.733 311.542 125.895 306.422 127.488C301.359 129.024 295.357 129.792 288.417 129.792Z" fill="white"/>
<path d="M22.966 158.184C26.2913 153.884 31.7093 151.734 39.22 151.734C46.7307 151.734 52.0913 153.855 55.302 158.098C58.57 162.341 60.204 169.249 60.204 178.824C60.204 188.341 58.5413 195.393 55.216 199.98C51.8907 204.567 46.5013 206.86 39.048 206.86C31.5947 206.86 26.234 204.595 22.966 200.066C19.698 195.537 18.064 188.513 18.064 178.996C18.064 169.421 19.698 162.484 22.966 158.184ZM45.412 178.824C45.412 173.549 44.982 169.995 44.122 168.16C43.3193 166.268 41.628 165.322 39.048 165.322C36.5253 165.322 34.8913 166.268 34.146 168.16C33.4007 169.995 33.028 173.521 33.028 178.738V180.802C33.028 186.363 33.4293 190.033 34.232 191.81C35.092 193.53 36.7833 194.39 39.306 194.39C41.886 194.39 43.5487 193.559 44.294 191.896C45.0393 190.233 45.412 186.793 45.412 181.576V178.824ZM111.811 178.136C111.811 196.712 104.473 206 89.7954 206H72.0794V152.594H90.1394C97.9941 152.594 103.555 154.801 106.823 159.216C110.149 163.573 111.811 169.88 111.811 178.136ZM89.5374 193.616C92.5761 193.616 94.5254 192.555 95.3854 190.434C96.3027 188.255 96.7614 184.643 96.7614 179.598C96.7614 174.495 96.2741 170.883 95.2994 168.762C94.3821 166.641 92.3754 165.58 89.2794 165.58H86.6994V193.616H89.5374ZM159.487 152.594L146.759 189.488V206H132.139V189.488L119.583 152.594H135.751L139.621 169.966H140.309L144.007 152.594H159.487ZM166.872 168.676C166.872 163.573 168.362 159.474 171.344 156.378C174.325 153.282 178.396 151.734 183.556 151.734C188.773 151.734 194.105 152.25 199.552 153.282L197.832 167.042C192.156 165.723 188.257 165.064 186.136 165.064C183.441 165.064 182.094 166.153 182.094 168.332C182.094 169.192 182.724 170.023 183.986 170.826C185.304 171.629 186.881 172.489 188.716 173.406C190.55 174.266 192.385 175.327 194.22 176.588C196.054 177.792 197.602 179.541 198.864 181.834C200.182 184.127 200.842 186.765 200.842 189.746C200.842 195.193 199.38 199.407 196.456 202.388C193.532 205.369 189.375 206.86 183.986 206.86C178.654 206.86 173.436 206.029 168.334 204.366L169.28 191.552C175.414 193.329 179.686 194.218 182.094 194.218C184.502 194.218 185.706 193.157 185.706 191.036C185.706 189.947 185.046 188.943 183.728 188.026C182.466 187.109 180.918 186.191 179.084 185.274C177.249 184.357 175.386 183.296 173.494 182.092C171.659 180.888 170.082 179.139 168.764 176.846C167.502 174.553 166.872 171.829 166.872 168.676ZM209.593 168.676C209.593 163.573 211.083 159.474 214.065 156.378C217.046 153.282 221.117 151.734 226.277 151.734C231.494 151.734 236.826 152.25 242.273 153.282L240.553 167.042C234.877 165.723 230.978 165.064 228.857 165.064C226.162 165.064 224.815 166.153 224.815 168.332C224.815 169.192 225.445 170.023 226.707 170.826C228.025 171.629 229.602 172.489 231.437 173.406C233.271 174.266 235.106 175.327 236.941 176.588C238.775 177.792 240.323 179.541 241.585 181.834C242.903 184.127 243.563 186.765 243.563 189.746C243.563 195.193 242.101 199.407 239.177 202.388C236.253 205.369 232.096 206.86 226.707 206.86C221.375 206.86 216.157 206.029 211.055 204.366L212.001 191.552C218.135 193.329 222.407 194.218 224.815 194.218C227.223 194.218 228.427 193.157 228.427 191.036C228.427 189.947 227.767 188.943 226.449 188.026C225.187 187.109 223.639 186.191 221.805 185.274C219.97 184.357 218.107 183.296 216.215 182.092C214.38 180.888 212.803 179.139 211.485 176.846C210.223 174.553 209.593 171.829 209.593 168.676ZM283.618 206H254.722V152.594H284.478L283.618 165.752H269.428V173.75H281.726V185.102H269.428V193.96H284.478L283.618 206ZM331.631 152.594L318.903 189.488V206H304.283V189.488L291.727 152.594H307.895L311.765 169.966H312.453L316.151 152.594H331.631Z" fill="black"/>
</g>
<defs>
<clipPath id="clip0_2_2">
<rect width="349" height="227" fill="white"/>
</clipPath>
</defs>
</svg>
